
        <svg xmlns="http://www.w3.org/2000/svg" xmlns:xlink="http://www.w3.org/1999/xlink" version="1.1" width="3162.036318485178" height="716.94459933618" viewBox="0 0 3162.036318485178 716.94459933618">
			
			<g transform="scale(8.101815924258887) translate(10, 10)">
				<defs id="SvgjsDefs1338"/><g id="SvgjsG1339" featureKey="QMusi1-0" transform="matrix(1.9186560565870912,0,0,1.9186560565870912,-14.389920424403183,-42.57537138219643)" fill="#000"><path xmlns="http://www.w3.org/2000/svg" d="M71.264,33.878c-1.196-2.826-3.187-5.222-5.694-6.916c-1.254-0.848-2.64-1.52-4.119-1.979  c-1.48-0.461-3.055-0.708-4.675-0.708c-1.106,0-2.183,0.125-3.214,0.361c-1.936,0.44-3.697,1.258-5.289,2.287  c-1.395,0.899-2.669,1.962-3.865,3.11c-1.193,1.151-2.312,2.391-3.386,3.665c0.902,1.104,1.776,2.22,2.628,3.31l0.068,0.088  c0.427,0.546,0.857,1.098,1.292,1.647c0.09-0.111,0.181-0.222,0.271-0.331c0.97-1.179,1.935-2.283,2.898-3.261  c0.723-0.735,1.444-1.398,2.161-1.971c1.078-0.863,2.141-1.519,3.192-1.954c0.527-0.217,1.054-0.38,1.588-0.491  c0.535-0.111,1.081-0.169,1.655-0.169c1.311,0,2.543,0.264,3.67,0.74c1.689,0.713,3.137,1.914,4.155,3.422  c0.509,0.753,0.911,1.582,1.186,2.466c0.275,0.885,0.424,1.823,0.424,2.807c0,1.312-0.264,2.544-0.739,3.672  c-0.715,1.688-1.915,3.137-3.423,4.154c-0.754,0.509-1.583,0.91-2.467,1.186s-1.823,0.424-2.806,0.424l0,0  c-0.632,0-1.229-0.071-1.816-0.204c-0.769-0.176-1.526-0.462-2.29-0.862c-0.254-0.134-0.51-0.279-0.767-0.438  c-0.769-0.475-1.545-1.063-2.325-1.752c-0.293-0.258-0.586-0.529-0.879-0.813c-0.88-0.853-1.762-1.817-2.646-2.854  c-0.737-0.866-1.477-1.781-2.223-2.726c-0.447-0.565-0.896-1.141-1.351-1.722c-1.229-1.572-2.482-3.18-3.804-4.727  c-0.992-1.159-2.021-2.285-3.116-3.335c-0.821-0.788-1.679-1.533-2.588-2.213c-0.17-0.127-0.342-0.252-0.516-0.375  c-1.219-0.86-2.531-1.601-3.957-2.149c-1.322-0.509-2.743-0.845-4.231-0.952c-0.344-0.025-0.69-0.038-1.041-0.037  c-2.162,0-4.239,0.439-6.122,1.236c-2.826,1.197-5.221,3.186-6.916,5.694c-0.847,1.254-1.52,2.64-1.979,4.12  C7.747,36.804,7.5,38.379,7.5,40c0,2.162,0.44,4.239,1.237,6.122c1.196,2.826,3.186,5.221,5.694,6.916  c1.254,0.847,2.64,1.52,4.119,1.98s3.054,0.707,4.675,0.707c1.105,0,2.183-0.126,3.213-0.36c1.936-0.441,3.697-1.259,5.29-2.287  c1.395-0.899,2.668-1.963,3.864-3.111c1.193-1.15,2.312-2.39,3.386-3.665c-0.906-1.109-1.784-2.229-2.64-3.324l-0.057-0.073  c-0.426-0.546-0.857-1.098-1.291-1.647c-0.091,0.11-0.181,0.222-0.271,0.332c-0.971,1.178-1.936,2.282-2.899,3.261  c-0.723,0.734-1.444,1.397-2.161,1.972c-1.077,0.862-2.141,1.519-3.192,1.953c-0.527,0.218-1.053,0.381-1.588,0.492  c-0.535,0.11-1.08,0.169-1.654,0.169c-1.312,0-2.544-0.264-3.671-0.741c-1.689-0.713-3.137-1.913-4.154-3.421  c-0.509-0.754-0.911-1.583-1.187-2.467c-0.274-0.884-0.423-1.823-0.423-2.807c0-1.312,0.264-2.544,0.739-3.672  c0.715-1.689,1.915-3.137,3.423-4.154c0.753-0.51,1.582-0.911,2.466-1.186c0.884-0.275,1.823-0.424,2.807-0.424  c0.632,0,1.229,0.071,1.815,0.204c1.025,0.234,2.03,0.665,3.057,1.3c0.77,0.476,1.546,1.064,2.325,1.753  c1.171,1.031,2.347,2.284,3.526,3.668c1.18,1.384,2.363,2.899,3.572,4.446c1.229,1.572,2.482,3.181,3.804,4.728  c0.992,1.16,2.021,2.285,3.116,3.336c0.205,0.197,0.412,0.391,0.623,0.583c0.631,0.572,1.283,1.119,1.965,1.63  c1.362,1.02,2.844,1.897,4.473,2.524c0.102,0.039,0.204,0.077,0.307,0.114c1.543,0.556,3.215,0.876,4.967,0.875  c2.161,0,4.238-0.439,6.121-1.236c2.826-1.196,5.221-3.187,6.916-5.694c0.847-1.254,1.521-2.64,1.98-4.12  C72.254,43.195,72.5,41.621,72.5,40C72.5,37.837,72.061,35.76,71.264,33.878z"/></g><g id="SvgjsG1340" featureKey="UyNsn2-0" transform="matrix(2.8720966555386322,0,0,2.8720966555386322,141.20883397594454,-15.968742200569892)" fill="#000"><path d="M1.32 5.74 c1.28 -0.12 2.5734 -0.18004 3.88 -0.18004 c0.68 0 1.3633 0.06666 2.05 0.2 s1.3067 0.38668 1.86 0.76002 s1.0067 0.89334 1.36 1.56 s0.53 1.5267 0.53 2.58 s-0.17666 1.91 -0.53 2.57 s-0.80668 1.1767 -1.36 1.55 s-1.17 0.62668 -1.85 0.76002 s-1.3533 0.2 -2.02 0.2 c-0.09334 0 -0.2 -0.0033398 -0.32 -0.01 s-0.23334 -0.01666 -0.34 -0.03 l0 4.3 l-3.26 0 l0 -14.26 z M4.58 12.48 l-0.08 0.44 c0.41334 0.05334 0.81 0.05 1.19 -0.01 s0.71334 -0.18 1 -0.36 s0.51666 -0.42334 0.69 -0.73 s0.26 -0.68 0.26 -1.12 s-0.06666 -0.81 -0.2 -1.11 s-0.31 -0.54 -0.53 -0.72 s-0.47 -0.31 -0.75 -0.39 s-0.57334 -0.12 -0.88 -0.12 l-0.28 0 l-0.42 0.04 l0 4.08 z M16.74 9.44 c0.69334 0 1.3166 0.096622 1.87 0.28996 s1.0167 0.50668 1.39 0.94002 s0.66 0.99 0.86 1.67 s0.3 1.5 0.3 2.46 l0 0.31 l-0.04 0.63 l-5.6 0 l-0.42 -0.06 c0.01334 0.38666 0.05668 0.69666 0.13002 0.93 s0.18 0.41668 0.32 0.55002 s0.31 0.22668 0.51 0.28002 s0.42666 0.08668 0.68 0.10002 c0.41334 0.02666 0.77 -0.03334 1.07 -0.18 s0.58334 -0.44666 0.85 -0.9 c0.41334 0.13334 0.79334 0.26 1.14 0.38 c0.29334 0.10666 0.56 0.2 0.8 0.28 s0.36 0.11334 0.36 0.1 c-0.48 1 -1.0633 1.73 -1.75 2.19 s-1.51 0.69 -2.47 0.69 c-0.70666 0 -1.3467 -0.09334 -1.92 -0.28 s-1.06 -0.49 -1.46 -0.91 s-0.71 -0.96666 -0.93 -1.64 s-0.33 -1.4967 -0.33 -2.47 c0 -0.94666 0.11 -1.7567 0.33 -2.43 s0.53 -1.2267 0.93 -1.66 s0.88666 -0.75334 1.46 -0.96 s1.2133 -0.31 1.92 -0.31 z M17.84 13.440000000000001 l0.30004 0.04 c-0.02666 -0.46666 -0.15 -0.83 -0.37 -1.09 s-0.56334 -0.39 -1.03 -0.39 c-0.53334 0 -0.91668 0.13 -1.15 0.39 s-0.37668 0.62334 -0.43002 1.09 c0.06666 -0.01334 0.12666 -0.02334 0.18 -0.03 s0.11334 -0.01 0.18 -0.01 l2.32 0 z M26.36 9.92 c0.16 -0.10666 0.38332 -0.21 0.66998 -0.31 s0.61 -0.15 0.97 -0.15 c0.30666 0 0.55666 0.01334 0.75 0.04 s0.29 0.03332 0.29 0.01998 l0 2.66 c-0.30666 -0.02666 -0.60666 -0.03332 -0.9 -0.01998 c-0.25334 0.02666 -0.51668 0.07 -0.79002 0.13 s-0.52334 0.17 -0.75 0.33 c-0.26666 0.18666 -0.45666 0.44 -0.57 0.76 s-0.17 0.76 -0.17 1.32 l0 5.32 l-3 0 l0 -7.94 l-1.62 0 l1.28 -2.54 l3.34 0 l0 0.78 c0.06666 -0.05334 0.12666 -0.10668 0.18 -0.16002 c0.05334 -0.04 0.10668 -0.08334 0.16002 -0.13 s0.10668 -0.08332 0.16002 -0.10998 z M31.2 12.04 l-1.66 0 l1.32 -2.48 l2.9 0 l0.24 1.12 c0.30666 -0.34666 0.68332 -0.63 1.13 -0.85 s0.96332 -0.33 1.55 -0.33 c1.3733 0 2.3534 0.5 2.94 1.5 c0.33334 -0.46666 0.72668 -0.83332 1.18 -1.1 s1.02 -0.4 1.7 -0.4 c1.2 0 2.0766 0.31666 2.63 0.95 s0.83 1.6433 0.83 3.03 l0 6.52 l-3.04 0 l0 -5.98 c0 -0.64 -0.10334 -1.0933 -0.31 -1.36 s-0.56332 -0.4 -1.07 -0.4 c-0.21334 0 -0.41 0.02334 -0.59 0.07 s-0.33334 0.13332 -0.46 0.25998 s-0.22666 0.3 -0.3 0.52 s-0.11 0.51 -0.11 0.87 l0 6.02 l-3.04 0 l0 -6.02 c0 -0.66666 -0.11666 -1.12 -0.35 -1.36 s-0.55668 -0.36 -0.97002 -0.36 c-0.2 0 -0.38666 0.02 -0.56 0.06 s-0.33 0.12 -0.47 0.24 s-0.25 0.29334 -0.33 0.52 s-0.12 0.52666 -0.12 0.9 l0 6.02 l-3.04 0 l0 -7.96 z M53.620000000000005 15.42 c-0.13334 -0.02666 -0.2733 -0.04338 -0.41996 -0.050038 s-0.27332 -0.01 -0.37998 -0.01 c-0.56 0 -1.0133 0.08666 -1.36 0.26 s-0.52 0.47334 -0.52 0.9 c0 0.26666 0.06334 0.47666 0.19 0.63 s0.28332 0.26668 0.46998 0.34002 s0.38332 0.11668 0.58998 0.13002 s0.38332 0.02 0.52998 0.02 c0.26666 0 0.56666 -0.03334 0.9 -0.1 l0 -2.12 z M52.58 13.219999999999999 c0.10666 0 0.24996 0.0033594 0.42996 0.01002 s0.38334 0.01666 0.61 0.03 c-0.01334 -0.52 -0.19668 -0.85666 -0.55002 -1.01 s-0.81 -0.23 -1.37 -0.23 c-0.30666 0 -0.66 0.03666 -1.06 0.11 s-0.83334 0.18334 -1.3 0.33 l-0.32 -1.1 c-0.04 -0.14666 -0.09666 -0.36 -0.17 -0.64 s-0.12334 -0.5 -0.15 -0.66 c0.66666 -0.22666 1.2967 -0.39 1.89 -0.49 s1.13 -0.15 1.61 -0.15 c1.4133 0 2.5066 0.33666 3.28 1.01 s1.16 1.75 1.16 3.23 l0 5.86 c-0.52 0.14666 -1.12 0.29 -1.8 0.43 s-1.4133 0.21 -2.2 0.21 c-0.69334 0 -1.3233 -0.06 -1.89 -0.18 s-1.0533 -0.32 -1.46 -0.6 s-0.72 -0.64666 -0.94 -1.1 s-0.33 -1.0067 -0.33 -1.66 s0.13666 -1.2 0.41 -1.64 s0.62668 -0.79 1.06 -1.05 s0.92 -0.44334 1.46 -0.55 s1.0833 -0.16 1.63 -0.16 z M58.62 5.720000000000001 l8.42 -0.000019531 c-0.14666 0.53334 -0.28666 1.0067 -0.42 1.42 c-0.10666 0.34666 -0.20666 0.66666 -0.3 0.96 s-0.14668 0.44 -0.16002 0.44 l-4.32 0 l0.04 0.44 l0 2.46 l4.04 0 l0 2.86 l-4.04 0 l0 5.7 l-3.26 0 l0 -14.28 z M67.5 20 l4.42 -7.58 c-0.32 -0.52 -0.65334 -1.0633 -1 -1.63 s-0.7 -1.14 -1.06 -1.72 s-0.71334 -1.1533 -1.06 -1.72 s-0.67332 -1.11 -0.97998 -1.63 l3.66 0 l2.16 3.52 l2.1 -3.52 l3.66 0 l-4.02 6.76 l4.38 7.52 l-3.44 0 l-2.58 -4.46 l-0.19 0.34 l-0.47 0.84 l-0.61 1.07 l-0.61 1.07 l-0.47 0.82 l-0.19 0.32 l-3.7 0 z"/></g><g id="SvgjsG1341" featureKey="sloganFeature-0" transform="matrix(1.13721136299296,0,0,1.13721136299296,144.5554639246367,45.5255034206695)" fill="#000"><path d="M10.01 5.888999999999999 l0 2.5781 l-3.3496 0 l0 11.533 l-2.9004 0 l0 -11.533 l-3.3691 0 l0 -2.5781 l9.6191 0 z M19.677690625 20 l-3.6719 -6.2109 l-0.84961 0 l0 6.2109 l-2.9297 0 l0 -14.111 l5.1172 0 c3.1934 0 4.541 1.8848 4.541 4.2188 c0 1.8945 -1.0742 3.125 -2.9883 3.5352 l4.248 6.3574 l-3.4668 0 z M15.156290625 8.32 l0 3.3691 l1.7285 0 c1.5625 0 2.1973 -0.66406 2.1973 -1.6797 c0 -1.0059 -0.63477 -1.6895 -2.1973 -1.6895 l-1.7285 0 z M34.736796874999996 20 l-1.0254 -2.9102 l-5.9277 0 l-1.0254 2.9102 l-2.998 0 l5.1953 -14.111 l3.584 0 l5.1953 14.111 l-2.998 0 z M28.642596875 14.6387 l4.209 0 l-2.0996 -5.9863 z M39.85354375 20 l0 -14.111 l5.1074 0 c4.502 0 6.7285 2.832 6.7285 7.0508 c0 4.2285 -2.2266 7.0605 -6.7285 7.0605 l-5.1074 0 z M42.78324375 17.4121 l2.0313 0 c2.5977 0 3.7891 -1.6211 3.7891 -4.4727 s-1.1914 -4.4727 -3.7891 -4.4727 l-2.0313 0 l0 8.9453 z M54.433621875 20 l0 -14.111 l2.9297 0 l0 14.111 l-2.9297 0 z M70.6446875 5.888999999999999 l2.9199 0 l0 14.111 l-3.3887 0 l-6.25 -10.088 l0 10.088 l-2.9199 0 l0 -14.111 l3.3496 0 l6.2891 10.029 l0 -10.029 z M83.320325 20.19531 c-4.0723 0 -7.0703 -2.8125 -7.0703 -7.2168 c0 -4.4629 3.0664 -7.2852 7.2168 -7.2852 c2.7246 0 4.9805 1.2012 6.2109 3.3203 l-2.5684 1.3672 c-0.74219 -1.4453 -2.0703 -2.1387 -3.6426 -2.1387 c-2.4414 0 -4.2773 1.6797 -4.2773 4.668 c0 2.8809 1.7188 4.7363 4.3848 4.7363 c1.8066 0 3.4668 -0.89844 3.8672 -2.959 l-3.8574 0 l0 -2.3535 l6.6309 0 l0 7.666 l-2.3047 0 l0 -1.9531 c-0.9082 1.3379 -2.4316 2.1484 -4.5898 2.1484 z M107.89109375 20 l-1.0254 -2.9102 l-5.9277 0 l-1.0254 2.9102 l-2.998 0 l5.1953 -14.111 l3.584 0 l5.1953 14.111 l-2.998 0 z M101.79689375 14.6387 l4.209 0 l-2.0996 -5.9863 z M119.257840625 20.19531 c-4.1504 0 -7.2168 -2.8223 -7.2168 -7.2559 s3.0664 -7.2461 7.2168 -7.2461 c3.1445 0 5.6641 1.6113 6.6699 4.2871 l-2.7344 0.99609 c-0.625 -1.6406 -2.1191 -2.5879 -3.9355 -2.5879 c-2.4316 0 -4.2969 1.6992 -4.2969 4.5508 s1.8652 4.5605 4.2969 4.5605 c1.8164 0 3.3105 -0.95703 3.9355 -2.5977 l2.7344 0.99609 c-1.0059 2.6758 -3.5254 4.2969 -6.6699 4.2969 z M137.77390625 20 l-1.0254 -2.9102 l-5.9277 0 l-1.0254 2.9102 l-2.998 0 l5.1953 -14.111 l3.584 0 l5.1953 14.111 l-2.998 0 z M131.67970625 14.6387 l4.209 0 l-2.0996 -5.9863 z M142.890653125 20 l0 -14.111 l5.1074 0 c4.502 0 6.7285 2.832 6.7285 7.0508 c0 4.2285 -2.2266 7.0605 -6.7285 7.0605 l-5.1074 0 z M145.820353125 17.4121 l2.0313 0 c2.5977 0 3.7891 -1.6211 3.7891 -4.4727 s-1.1914 -4.4727 -3.7891 -4.4727 l-2.0313 0 l0 8.9453 z M165.65453125 8.467 l-5.2344 0 l0 3.2031 l4.6387 0 l0 2.5488 l-4.6387 0 l0 3.1934 l5.2344 0 l0 2.5879 l-8.1836 0 l0 -14.111 l8.1836 0 l0 2.5781 z M184.843703125 20 l-2.9199 0 l-0.92773 -10.635 l-3.5742 10.635 l-1.8945 0 l-3.5742 -10.635 l-0.9375 10.635 l-2.9297 0 l1.1816 -14.111 l4.1797 0 l3.0078 8.8574 l3.0469 -8.8574 l4.1797 0 z M198.495984375 5.888999999999999 l-4.6387 7.3535 l0 6.7578 l-2.9395 0 l0 -6.6895 l-4.668 -7.4219 l3.2422 0 l2.8809 4.8047 l2.8906 -4.8047 l3.2324 0 z"/></g>
			</g>
		</svg>
	